#!OML:ASF E:\acrobat2\Project_11_07_03\Capture day 1\Session 1\Acrobat.ASF
:FULLY-SPECIFIED
:DEGREES
524
root 11.621 16.0225 2.4984 177.025 4.2344 0.101194
lowerback 15.6925 0.810898 2.85066
upperback 3.48106 1.29193 -2.16071
thorax -4.96876 0.552148 -4.15682
lowerneck -3.90312 0.411813 2.07172
upperneck -22.1615 0.694206 0.954723
head -6.07741 0.110262 -0.0739565
rclavicle 0 -1.15295e-014
rhumerus 58.0985 -31.9418 -79.9147
rradius 98.0682
rwrist -3.62627
rhand -49.5091 -69.3029
rfingers 7.12502
rthumb -22.1178 -261.942
lclavicle 0 -1.15295e-014
lhumerus 59.8297 25.2291 71.639
lradius 102.381
lwrist 12.7327
lhand -46.677 -77.0929
lfingers 7.12502
lthumb -19.3968 -48.0404
rfemur -38.6068 6.77775 19.5738
rtibia -5.77382
rfoot -7.10268 -12.7712
rtoes 21.9097
lfemur -44.6689 5.88355 -22.4638
ltibia -0.109226
lfoot 3.55099 -4.78197
ltoes -5.07746
525
root 11.6445 15.9304 2.68384 178.861 4.18449 0.241348
lowerback 14.9408 0.819322 3.04397
upperback 3.31029 1.32213 -2.14516
thorax -4.73485 0.568846 -4.23681
lowerneck -3.48086 0.450648 2.16768
upperneck -23.3997 0.762494 0.894443
head -6.54826 0.124093 -0.11453
rclavicle -6.95746e-016 -3.97569e-016
rhumerus 58.686 -32.3782 -80.0279
rradius 98.1127
rwrist -3.89381
rhand -49.3802 -69.9527
rfingers 7.12502
rthumb -21.9941 -261.278
lclavicle -6.95746e-016 -3.97569e-016
lhumerus 60.3425 25.2463 71.9985
lradius 102.552
lwrist 12.7577
lhand -46.6331 -77.7076
lfingers 7.12502
lthumb -19.3545 -48.6508
rfemur -36.827 6.88625 19.4894
rtibia -6.49761
rfoot -7.64278 -12.7041
rtoes 22.8132
lfemur -42.6602 5.9807 -22.491
ltibia -0.911547
lfoot 3.02206 -4.61394
ltoes -4.84199
526
root 11.6679 15.8529 2.85875 180.568 4.11634 0.358433
lowerback 14.1757 0.70859 3.17712
upperback 3.19133 1.37807 -2.12643
thorax -4.44064 0.679568 -4.28806
lowerneck -3.17765 0.480027 2.16067
upperneck -24.4117 0.825798 0.922639
head -6.9318 0.140532 -0.108913
rclavicle 1.33186e-014 -1.07344e-014
rhumerus 59.3911 -32.8182 -80.1684
rradius 98.0298
rwrist -4.14857
rhand -49.2326 -70.4802
rfingers 7.12502
rthumb -21.8524 -260.734
lclavicle 1.33186e-014 -1.07344e-014
lhumerus 60.9106 25.3207 72.3306
lradius 102.617
lwrist 12.8355
lhand -46.5913 -78.3107
lfingers 7.12502
lthumb -19.3144 -49.2498
rfemur -34.8673 6.95738 19.3853
rtibia -7.1377
rfoot -8.12329 -12.5011
rtoes 23.6443
lfemur -40.5048 6.0478 -22.4841
ltibia -1.58371
lfoot 2.74399 -4.67606
ltoes -3.82122
527
root 11.6909 15.79 3.02208 182.127 4.01965 0.472736
lowerback 13.4294 0.717842 3.33204
upperback 3.10768 1.39191 -2.08614
thorax -4.11737 0.690259 -4.31404
lowerneck -2.92418 0.493387 2.07038
upperneck -25.2227 0.877159 1.02627
head -7.24532 0.155759 -0.0636096
rclavicle -7.55382e-015 1.90833e-014
rhumerus 60.1284 -33.1431 -80.3555
rradius 97.8442
rwrist -4.28041
rhand -49.098 -70.8908
rfingers 7.12502
rthumb -21.7231 -260.308
lclavicle -7.55382e-015 1.90833e-014
lhumerus 61.4733 25.3994 72.6262
lradius 102.567
lwrist 12.936
lhand -46.5499 -78.8981
lfingers 7.12502
lthumb -19.2745 -49.8333
rfemur -32.6913 6.97497 19.2885
rtibia -7.64306
rfoot -8.54191 -12.1079
rtoes 24.0668
lfemur -38.1789 6.0992 -22.4154
ltibia -2.07086
lfoot 2.69138 -4.94458
ltoes -2.29519
528
root 11.7135 15.7415 3.17274 183.539 3.90141 0.627954
lowerback 12.7141 0.724358 3.51671
upperback 3.03041 1.40547 -2.01743
thorax -3.80311 0.700868 -4.32791
lowerneck -2.68921 0.487116 1.93236
upperneck -25.8442 0.909373 1.1755
head -7.49565 0.165801 0.00633799
rclavicle -1.10325e-014 6.75868e-015
rhumerus 60.8411 -33.3561 -80.5426
rradius 97.5531
rwrist -4.3075
rhand -48.9976 -71.2125
rfingers 7.12502
rthumb -21.6267 -259.975
lclavicle -1.10325e-014 6.75868e-015
lhumerus 61.9895 25.4834 72.8652
lradius 102.402
lwrist 13.0788
lhand -46.5181 -79.4543
lfingers 7.12502
lthumb -19.2439 -50.3865
rfemur -30.3004 6.94246 19.2527
rtibia -7.96728
rfoot -8.85599 -11.5537
rtoes 24.296
lfemur -35.6742 6.15869 -22.2225
ltibia -2.34154
lfoot 2.79179 -5.33241
ltoes -0.605089
529
root 11.7358 15.7074 3.30966 184.834 3.77329 0.849112
lowerback 12.0267 0.73547 3.75844
upperback 2.92155 1.43136 -1.91646
thorax -3.53433 0.715893 -4.34377
lowerneck -2.48897 0.469807 1.73969
upperneck -26.2164 0.9347 1.39048
head -7.65795 0.175919 0.108373
rclavicle -1.75924e-014 1.86858e-014
rhumerus 61.4605 -33.4581 -80.6735
rradius 97.1497
rwrist -4.24986
rhand -48.9318 -71.4449
rfingers 7.12502
rthumb -21.5635 -259.736
lclavicle -1.75924e-014 1.86858e-014
lhumerus 62.4185 25.5066 73.0423
lradius 102.121
lwrist 13.2259
lhand -46.4852 -80.0087
lfingers 7.12502
lthumb -19.2123 -50.9377
rfemur -27.7323 6.85791 19.3042
rtibia -8.08425
rfoot -9.00078 -10.9054
rtoes 24.8197
lfemur -33.0038 6.2307 -21.8676
ltibia -2.37647
lfoot 2.84057 -5.79337
ltoes 0.245913
530
root 11.7585 15.6876 3.43178 186.05 3.64381 1.10416
lowerback 11.3359 0.757876 4.02687
upperback 2.75506 1.47211 -1.79514
thorax -3.32102 0.735735 -4.35649
lowerneck -2.29041 0.424311 1.56383
upperneck -26.4343 0.922419 1.59123
head -7.76806 0.171216 0.205076
rclavicle -3.08116e-015 -1.82882e-014
rhumerus 61.9378 -33.4662 -80.7035
rradius 96.6454
rwrist -4.14736
rhand -48.9065 -71.5913
rfingers 7.12502
rthumb -21.5392 -259.586
lclavicle -3.08116e-015 -1.82882e-014
lhumerus 62.74 25.4373 73.1477
lradius 101.722
lwrist 13.3391
lhand -46.4531 -80.5816
lfingers 7.12502
lthumb -19.1815 -51.5075
rfemur -25.0415 6.69974 19.3944
rtibia -8.00885
rfoot -8.81762 -10.3
rtoes 26.7027
lfemur -30.1843 6.28296 -21.386
ltibia -2.19388
lfoot 2.77849 -6.20705
ltoes 0.210646
531
root 11.7815 15.6823 3.53851 187.233 3.51355 1.32644
lowerback 10.5677 0.79758 4.24504
upperback 2.53546 1.52297 -1.66893
thorax -3.11954 0.759312 -4.33525
lowerneck -2.19161 0.384635 1.38644
upperneck -26.3625 0.917029 1.82563
head -7.76224 0.170774 0.312831
rclavicle 9.0447e-015 -3.18055e-015
rhumerus 62.2997 -33.4648 -80.5787
rradius 96.022
rwrist -4.10119
rhand -48.9176 -71.7058
rfingers 7.12502
rthumb -21.5499 -259.473
lclavicle 9.0447e-015 -3.18055e-015
lhumerus 62.9709 25.2831 73.1809
lradius 101.208
lwrist 13.3933
lhand -46.4399 -81.182
lfingers 7.12502
lthumb -19.1688 -52.1067
rfemur -22.2909 6.44837 19.4291
rtibia -7.71064
rfoot -8.12598 -9.90522
rtoes 28.2013
lfemur -27.2442 6.2641 -20.8605
ltibia -1.84362
lfoot 2.53606 -6.51068
ltoes -0.425268
532
root 11.8043 15.6918 3.6298 188.43 3.3804 1.46952
lowerback 9.64935 0.856255 4.35377
upperback 2.26625 1.57707 -1.54824
thorax -2.88765 0.784437 -4.25409
lowerneck -2.13353 0.328083 1.23027
upperneck -26.1766 0.885933 2.0429
head -7.71014 0.160035 0.41224
rclavicle -1.16289e-014 -4.17448e-015
rhumerus 62.5601 -33.4935 -80.2791
rradius 95.2791
rwrist -4.16099
rhand -48.9506 -71.8255
rfingers 7.12502
rthumb -21.5816 -259.357
lclavicle -1.16289e-014 -4.17448e-015
lhumerus 63.1077 25.0534 73.1362
lradius 100.6
lwrist 13.3707
lhand -46.4461 -81.8218
lfingers 7.12502
lthumb -19.1747 -52.7471
rfemur -19.5251 6.1024 19.343
rtibia -7.13724
rfoot -6.90411 -9.8028
rtoes 28.6319
lfemur -24.2228 6.12921 -20.3569
ltibia -1.38592
lfoot 1.98325 -6.73297
ltoes -1.84909
533
root 11.8273 15.7172 3.70619 189.666 3.23029 1.54948
lowerback 8.56063 0.921728 4.37648
upperback 1.94212 1.62148 -1.43
thorax -2.61958 0.804336 -4.12134
lowerneck -2.14019 0.287547 1.07859
upperneck -25.8308 0.869751 2.26274
head -7.59261 0.156759 0.51027
rclavicle -1.02374e-014 1.98785e-015
rhumerus 62.7445 -33.5472 -79.8284
rradius 94.4217
rwrist -4.32723
rhand -48.9979 -71.9265
rfingers 7.12502
rthumb -21.627 -259.261
lclavicle -1.02374e-014 1.98785e-015
lhumerus 63.161 24.7885 72.9907
lradius 99.8905
lwrist 13.2866
lhand -46.4733 -82.4844
lfingers 7.12502
lthumb -19.2008 -53.4123
rfemur -16.7447 5.63155 19.1533
rtibia -6.1996
rfoot -5.5295 -9.65734
rtoes 29.576
lfemur -21.1354 5.84085 -19.8713
ltibia -0.874417
lfoot 1.1983 -6.77202
ltoes -3.57895
534
root 11.851 15.7606 3.76905 190.925 3.032 1.69253
lowerback 7.3512 0.974337 4.45681
upperback 1.5587 1.64652 -1.28304
thorax -2.34427 0.812536 -3.98708
lowerneck -2.16659 0.225994 0.964863
upperneck -25.5102 0.821151 2.4392
head -7.48011 0.139181 0.58877
rclavicle 8.84592e-015 0
rhumerus 62.8814 -33.6077 -79.2607
rradius 93.4449
rwrist -4.58116
rhand -49.0412 -71.9467
rfingers 7.12502
rthumb -21.6686 -259.246
lclavicle 8.84592e-015 0
lhumerus 63.1293 24.5526 72.7037
lradius 99.084
lwrist 13.1963
lhand -46.5221 -83.1186
lfingers 7.12502
lthumb -19.2478 -54.0511
rfemur -13.9001 5.00931 19.0158
rtibia -5.13729
rfoot -4.13373 -9.54681
rtoes 30.8773
lfemur -17.9512 5.38972 -19.2537
ltibia -0.371745
lfoot 0.13564 -6.58057
ltoes -5.69875
535
root 11.8756 15.824 3.82051 192.179 2.74917 2.0163
lowerback 6.09934 1.0004 4.73629
upperback 1.11367 1.64502 -1.08196
thorax -2.10464 0.803587 -3.90751
lowerneck -2.28421 0.17285 0.857614
upperneck -25.1485 0.780099 2.61915
head -7.3385 0.124968 0.666445
rclavicle 1.93815e-014 -7.7526e-015
rhumerus 62.9978 -33.6556 -78.6051
rradius 92.3322
rwrist -4.89889
rhand -49.0726 -71.8206
rfingers 7.12502
rthumb -21.6987 -259.375
lclavicle 1.93815e-014 -7.7526e-015
lhumerus 63.028 24.3663 72.2501
lradius 98.178
lwrist 13.1272
lhand -46.5858 -83.6738
lfingers 7.12502
lthumb -19.3091 -54.6124
rfemur -10.9356 4.19044 19.075
rtibia -3.96356
rfoot -3.03187 -9.32957
rtoes 33.2023
lfemur -14.6229 4.76919 -18.3585
ltibia 0.117911
lfoot -1.26476 -6.09336
ltoes -8.90443
536
root 11.9002 15.9087 3.86331 193.41 2.37494 2.53803
lowerback 4.85486 1.00617 5.24169
upperback 0.610776 1.62238 -0.83034
thorax -1.9238 0.779306 -3.90394
lowerneck -2.50281 0.12906 0.775714
upperneck -24.7998 0.74803 2.79348
head -7.18451 0.113745 0.73717
rclavicle -3.13583e-014 6.75868e-015
rhumerus 63.1345 -33.6917 -77.8899
rradius 91.0704
rwrist -5.25503
rhand -49.104 -71.516
rfingers 7.12502
rthumb -21.7289 -259.684
lclavicle -3.13583e-014 6.75868e-015
lhumerus 62.8925 24.1272 71.6788
lradius 97.1739
lwrist 12.9996
lhand -46.6574 -84.1354
lfingers 7.12502
lthumb -19.3779 -55.0809
rfemur -7.8441 3.1411 19.3365
rtibia -2.77631
rfoot -2.12978 -9.14282
rtoes 34.8048
lfemur -11.0379 4.02373 -17.185
ltibia 0.491194
lfoot -2.84485 -5.21165
ltoes -13.1647
537
root 11.923 16.014 3.90049 194.646 1.97221 3.03135
lowerback 3.61237 1.01663 5.72041
upperback 0.0393973 1.59314 -0.600041
thorax -1.81424 0.747413 -3.90957
lowerneck -2.77911 0.080701 0.737522
upperneck -24.5473 0.711303 2.95846
head -7.05322 0.0978566 0.797623
rclavicle -3.97818e-014 9.14409e-015
rhumerus 63.3171 -33.7327 -77.1332
rradius 89.6458
rwrist -5.61649
rhand -49.1235 -71.0125
rfingers 7.12502
rthumb -21.7477 -260.189
lclavicle -3.97818e-014 9.14409e-015
lhumerus 62.7688 23.8543 71.0003
lradius 96.0627
lwrist 12.8912
lhand -46.7131 -84.4641
lfingers 7.12502
lthumb -19.4314 -55.4151
rfemur -4.51003 2.55828 19.4511
rtibia -1.83558
rfoot -1.91371 -9.48607
rtoes 35.109
lfemur -7.45352 3.54459 -16.0437
ltibia 1.0476
lfoot -4.27827 -4.20884
ltoes -16.8028
538
root 11.9432 16.1395 3.93579 195.887 1.55356 3.4404
lowerback 2.41297 1.0354 6.1214
upperback -0.602273 1.56538 -0.414658
thorax -1.80157 0.71122 -3.9214
lowerneck -3.10745 0.0463904 0.726674
upperneck -24.3385 0.694179 3.13623
head -6.92831 0.0882162 0.856562
rclavicle -3.55825e-014 3.77691e-015
rhumerus 63.569 -33.7861 -76.3521
rradius 88.0446
rwrist -5.94541
rhand -49.1035 -70.2121
rfingers 7.12502
rthumb -21.7284 -260.987
lclavicle -3.55825e-014 3.77691e-015
lhumerus 62.6884 23.5266 70.2471
lradius 94.835
lwrist 12.8187
lhand -46.7293 -84.6358
lfingers 7.12502
lthumb -19.447 -55.5883
rfemur -1.11829 2.2766 19.4116
rtibia -0.909132
rfoot -2.1386 -10.2231
rtoes 33.4379
lfemur -3.89669 3.29649 -14.9443
ltibia 1.83763
lfoot -5.56281 -3.11699
ltoes -19.8381
